<?xml version="1.0" encoding="UTF-8"?>
<svg id="Ebene_1" data-name="Ebene 1" xmlns="http://www.w3.org/2000/svg" version="1.1" viewBox="0 0 420.2 468.6">
  <defs>
    <style>
      .cls-1 {
        fill: #fff;
      }

      .cls-1, .cls-2 {
        stroke-width: 0px;
      }

      .cls-2 {
        fill: #0b1f26;
      }
    </style>
  </defs>
  <circle class="cls-1" cx="209.3" cy="238.9" r="195.9"/>
  <circle class="cls-1" cx="210.3" cy="271.5" r="195.9"/>
  <g>
    <path class="cls-2" d="M196.5,263.6c7.6,8.2,15.4,16.2,22.7,24.5,1.1,1.2.7,4.4-.1,6.2-.8,1.8-2.8,3.3-4.5,4.5-14.6,11.1-29.1,22.2-43.9,33.1-16.9,12.5-16.6,31,1.1,42.5,18.4,12,36.9,23.9,55.4,35.8,1.7,1.1,3.4,2.1,5,3.4,5.1,3.9,5.8,8.9,1.7,13.8-1.7,2-4,3.4-6.2,5-14.7,10.6-29.3,21.2-44.1,31.7-1.1.8-2.7,1.2-4,1-92.9-14.6-156.8-82.4-174.1-161.8-16.6-76.2,4.2-142.6,58-198.7,18.7-19.5,40.7-34.3,65.1-45.5.1,0,.3-.2.4-.2,4-1.3,9-5,12-1.2,2.4,3.1,2,8.7,1.9,13.2,0,1.5-2.8,3.4-4.8,4.3-26.3,12.6-49.7,29.1-68.9,51.1-27.6,31.6-44.9,68-49.4,109.8-1.5,13.7-.3,27.6-.2,41.4,0,.4.5.9,1.4,2.5,30.5-37.3,60.6-74.2,91.3-111.7,11.1,13.8,21.7,27,32.6,40.6,21.6-26.6,43.1-52.8,64.9-79.6,21.7,26.8,43,53.1,64.7,79.8,11.2-13.8,21.9-27,33.1-40.8,30.3,37.2,60.4,73.9,90.4,110.7.6-.2,1.1-.5,1.7-.7.5-5.6,1.5-11.1,1.6-16.7,1.2-59.7-22-109-64.7-149.7-16.4-15.7-35.2-27.8-55.9-37.2-5.4-2.4-7.5-11.9-3.7-16.5,2.9-3.5,6.6-2.2,9.6-.6,14.1,7.4,29,13.8,41.9,23,46.3,33.1,75.9,78.2,87,133.7,13.5,67.2-2,128-46.9,180.5-38.9,45.6-89.4,68-148.4,72.8-5.4.4-10.8.6-16.2,1-.1-.4-.2-.8-.4-1.2,9.3-6,18.6-12,27.9-17.8,3.7-2.3,7.6-4.2,11.2-6.5,17.3-10.4,18.1-30.3,1.2-41.5-17.5-11.6-35.3-22.7-52.9-34-2.4-1.5-4.8-3-7-4.7-8.8-6.9-8.7-14,.1-20.7,12.8-9.6,25.5-19.3,38.3-28.9,3.1-2.3,6.1-4.6,9-7.1,2.5-2.1,4.2-2.1,6.6.5,14.4,15.5,29.1,30.8,43.6,46.1,1.3,1.3,2.5,2.7,4,3.8,3.9,2.7,9.1,2.3,11.8-1,3.1-3.8,2.2-7.5-.7-10.8-7-7.8-14.1-15.6-21.4-23.1-25.9-27.1-51.9-54.1-77.9-81.1-.3-.4-.8-.6-1.4-1.2-7.8,8.1-15.6,16.3-23.4,24.4-19.6,20.2-39.2,40.4-58.8,60.6-.9,1-1.9,1.9-2.8,2.9-3.8,4.4-4.1,9-.8,12.6,3,3.4,8.3,3.8,12.6-.1,5.8-5.2,11-11.2,16.4-16.8,18.7-19.5,37.3-39,56-58.5.3-.3.8-.5,1.3-.7h0ZM294.3,241.6c1.7,1.8,2.9,3,4,4.2,15,16.5,29.9,33.1,45,49.5,3.9,4.3,10.1,4.7,13.8,1.3,4-3.7,3.6-7.9-1.2-13-9.5-10.2-19.1-20.4-28.6-30.7-10.8-11.7-21.5-23.5-32.3-35.4-.7.6-1.2,1-1.7,1.4-12.9,13.9-25.8,27.9-38.6,41.8-1.8,1.9-3.6,4.1-4.6,6.4-2.6,6,1.6,12.2,7.9,11.1,3.3-.6,6.8-3.2,9.2-5.9,9.1-9.9,17.7-20.3,27-31h0ZM123.9,217.4c-10.6,11.8-20.6,23-30.7,34-10.3,11.3-20.8,22.5-31.2,33.7-2.3,2.5-3.7,5.1-2.1,8.6,1.7,3.5,4.5,5.9,8.3,4.8,3.4-1,7.2-2.7,9.6-5.2,7.3-7.5,14-15.6,20.9-23.5,8.3-9.3,16.6-18.6,25.1-28.1,1.6,1.8,3,3.4,4.4,5,3.8,4.2,7.3,8.7,11.3,12.6,3.7,3.5,8.8,3.1,12.1-.2,3.3-3.2,3.7-7.8.2-11.6-9-10-18.3-19.7-28-30h0Z"/>
    <path class="cls-2" d="M210.8,0c27.7.6,48.7,22.6,48,50.2-.7,28.7-22.4,48.9-51.4,48.2-26.8-.7-47.8-23.6-47-51.3C160.9,21,184.1-.6,210.8,0ZM209.4,75.9c16.5-.4,28.2-12.4,27.8-28.3-.4-14.4-13.4-26.4-28.2-25.9-15,.5-26.4,13.3-26,29.1.4,14.1,12.4,25.5,26.4,25.1h0Z"/>
    <path class="cls-2" d="M122.1,123.4c5.6,0,9.2,3.4,9.2,8.7,0,5.6-3.9,9.6-9.2,9.5-5.3-.1-9.1-4.2-9-9.8,0-5.2,3.6-8.5,8.9-8.5h0Z"/>
    <path class="cls-2" d="M306.6,132.7c0,4.9-4,8.9-8.8,8.9-5.2,0-9.6-4.4-9.5-9.5.1-5.1,4.2-8.9,9.5-8.8,5.2,0,8.9,4,8.8,9.4h0Z"/>
    <path class="cls-1" d="M294.3,241.6c-9.3,10.8-18,21.1-27,31-2.4,2.6-5.9,5.3-9.2,5.9-6.4,1.1-10.6-5.1-7.9-11.1,1-2.4,2.8-4.5,4.6-6.4,12.8-14,25.7-27.9,38.6-41.8.4-.5,1-.9,1.7-1.4,10.8,11.8,21.5,23.6,32.3,35.4,9.5,10.3,19,20.5,28.6,30.7,4.8,5.1,5.1,9.2,1.2,13-3.6,3.4-9.9,3-13.8-1.3-15-16.5-30-33-45-49.5-1.1-1.2-2.2-2.4-4-4.2h0Z"/>
    <path class="cls-1" d="M123.9,217.4c9.7,10.3,19,20.1,28,30,3.5,3.8,3.1,8.4-.2,11.7-3.4,3.3-8.5,3.7-12.1.2-4.1-3.9-7.6-8.4-11.3-12.6-1.4-1.6-2.8-3.2-4.4-5-8.5,9.6-16.8,18.8-25.1,28.1-7,7.8-13.7,15.9-20.9,23.5-2.4,2.5-6.2,4.2-9.6,5.2-3.8,1.1-6.6-1.3-8.3-4.8-1.6-3.4-.2-6.1,2.1-8.6,10.4-11.2,20.9-22.4,31.2-33.7,10.1-11.1,20.1-22.2,30.7-34h0Z"/>
    <path class="cls-1" d="M209.4,75.9c-14,.4-26.1-11.1-26.4-25.1-.4-15.8,11-28.6,26-29.1,14.8-.5,27.9,11.5,28.2,25.9.4,15.9-11.4,27.8-27.8,28.3h0Z"/>
  </g>
</svg>